<svg id="Слой_1" data-name="Слой 1" xmlns="http://www.w3.org/2000/svg" viewBox="0 0 1175.33 785.84"><defs><style>.cls-1{fill:#be5683;}.cls-2{fill:#ea824e;}.cls-3{fill:#e56a36;}.cls-4{fill:#99452e;}.cls-5{fill:#231f20;}.cls-6{fill:#9ba8ba;}.cls-7{fill:#747d89;}.cls-8{fill:#eaa496;}.cls-9{fill:#66363a;}</style></defs><title>sleeping cat-02</title><ellipse class="cls-1" cx="593.15" cy="568.08" rx="488.98" ry="64.79"/><path class="cls-2" d="M344,556.06c-38.64,0-109.51-28.41-103.09-99,8.24-90.72,42.17-119.42,123.71-139.69C457.92,294.19,581,217.77,753.29,255c76.3,16.5,85.57,87.64,86.61,150.52S842,566.36,668.76,562.24,350.19,556.06,344,556.06Z"/><path class="cls-2" d="M353.8,556.57S247.61,554,237.3,547.8s26.29-40.72,26.29-40.72Z"/><path class="cls-2" d="M265.65,380.27s-10.31-54.64-7.22-63.92,59.28,21.14,59.28,21.14Z"/><path class="cls-2" d="M727,540.07s44.33,41.24,100,43.3S964.32,570.88,969,565c6.24-8-4.08-12.26-4.08-12.26s7.87-1.65,5.8-9.9-11.18-7.52-11.18-7.52,6.74-2.64,6-7.74c-.85-6-8.61-14.29-25.61-14.29-24.74,0-40.21-2.07-73.2-12.37s-46.91-48.46-53.09-53.62-28.5-17.32-63.92,3.1C688.86,485.43,727,540.07,727,540.07Z"/><path class="cls-3" d="M727.86,407.08c8.9,21.74,34.8,67.79,85.57,90.72,53.27,24.06,141,27.95,147.36,16.24,4.26-7.81-7.88-11.09-7.88-11.09s8.37-.6,9.46-9-8.6-11-8.6-11,8.24,1.78,9.46-3.23c1.35-5.55-9.52-10.43-25.74-12.85-16.81-2.5-88.66-42.61-92.1-147.43-1.62-49.54-76.29-80.75-115.46-47.76C706.78,291.17,715.49,376.84,727.86,407.08Z"/><path class="cls-2" d="M837.15,293.67s36.45,17,57.9,47.43c16,22.68,17.81,64.2,4.13,86.6-28.36,46.39-104.65,55.67-115.64,39.17s.17-32.47,37.28-40.72,46.12-22.5,36.09-41.24c-7.74-14.43-13.61-38.1-12.89-54.64C845.05,306.56,837.15,293.67,837.15,293.67Z"/><path class="cls-4" d="M333.1,494.7a3.5,3.5,0,0,0,2.47,3.69c.41.15,4.68,1.92,3.84,10.1-.76,7.38-5.85,9-6.43,9.21a3.51,3.51,0,0,0-2.43,4.27,3.46,3.46,0,0,0,4.21,2.47c.42-.1,10.3-2.77,11.59-15.24,1.46-14.23-8.35-17.36-8.77-17.49a3.48,3.48,0,0,0-4.34,2.33A3.88,3.88,0,0,0,333.1,494.7Z"/><path class="cls-4" d="M335.26,519.59a2.13,2.13,0,0,0,.32,1.33l5.63,8.78a2.06,2.06,0,1,0,3.47-2.23l-5.63-8.78a2.07,2.07,0,0,0-3.79.9Z"/><path class="cls-4" d="M338.89,514.36a2.07,2.07,0,0,0,1.08,2l9.19,4.94a2.06,2.06,0,0,0,1.95-3.64l-9.19-4.94a2.07,2.07,0,0,0-2.79.85A2.11,2.11,0,0,0,338.89,514.36Z"/><path class="cls-4" d="M342.1,412.32a3.48,3.48,0,0,1,2.81-3.43c.42-.11,4.85-1.45,4.81-9.68,0-7.42-4.94-9.57-5.5-9.79a3.5,3.5,0,0,1-2-4.48,3.46,3.46,0,0,1,4.42-2.06c.41.15,10,3.76,10.05,16.3.07,14.31-10,16.47-10.43,16.55a3.47,3.47,0,0,1-4.09-2.74A3.05,3.05,0,0,1,342.1,412.32Z"/><path class="cls-4" d="M346.68,387.76a2,2,0,0,1,.44-1.29l6.46-8.19a2.06,2.06,0,0,1,3.24,2.55L350.36,389a2.06,2.06,0,0,1-2.9.34A2,2,0,0,1,346.68,387.76Z"/><path class="cls-4" d="M349.78,393.32a2.06,2.06,0,0,1,1.27-1.92l9.62-4a2.06,2.06,0,1,1,1.59,3.81l-9.63,4a2.05,2.05,0,0,1-2.69-1.11A2,2,0,0,1,349.78,393.32Z"/><path class="cls-4" d="M389.7,477.4c-.11,1.22-.23,2-.26,2.14a2.06,2.06,0,1,1-4.06-.68c0-.12,2.16-13.63-4.24-19.25-3.56-3.12-10.91-3.54-11-3.54a2.07,2.07,0,0,1-2-2.17,2,2,0,0,1,2.16-2c.36,0,8.84.5,13.49,4.58C390.27,462.14,390.11,472.83,389.7,477.4Z"/><path class="cls-4" d="M392.19,432.7c0-1.23,0-2,0-2.16A2,2,0,0,0,390,428.6a2.06,2.06,0,0,0-1.95,2.17c0,.12.63,13.79-6.35,18.66-3.88,2.71-11.23,2.31-11.3,2.31a2.06,2.06,0,0,0-2.18,1.94,2,2,0,0,0,1.93,2.18c.36,0,8.84.48,13.91-3.05C391.07,447.93,392.09,437.29,392.19,432.7Z"/><path class="cls-5" d="M357,442.07c-3.6,2.77-.26,10.29-.08,10.67-.24.32-5.18,6.93-2.27,10.43,7.09,8.54,16.86-7.4,17.61-8.65h.06l0-.08,0-.05h-.05C371.79,453,365.77,435.31,357,442.07Z"/><path class="cls-6" d="M405.34,561.21c-.62-18.1,67-110.32,129.91-141.76s195.88-24.23,229.39,40.72c29.57,57.34,26.8,115-57.22,115C630.05,575.12,405.86,576.15,405.34,561.21Z"/><path class="cls-3" d="M585.24,442.67c-4.74,4.23-6.92-4.53-6.92-4.53a7.31,7.31,0,0,1-6.46,7.42c-6.34.95-6.89-6-6.89-6s.54,6.41-4.79,6.81c-7.56.57-9.77-29.85-14.44-44.58-4.17-13.17-10.2-23.85-37-29.58-40.44-8.62-21.56-43.07-3.21-50.16,16.35-6.32,62.5,3.13,81.58,33.55C605.26,384.58,589.14,439.19,585.24,442.67Z"/><path class="cls-6" d="M497.6,450.38s-15.8-22-.43-29.69c17.82-8.91,25.88,16.12,25.88,16.12Z"/><path class="cls-7" d="M577.18,485.38a3.09,3.09,0,0,1-1.08-6c2.56-1,9.61-4.56,11.46-9.61.86-2.34.54-4.8-1-7.51a6.06,6.06,0,0,0-4.23-3.33c-5.17-1-12.71,3.74-15.17,5.67a3.09,3.09,0,1,1-3.83-4.86c1.14-.89,11.28-8.67,20.22-6.87a12.26,12.26,0,0,1,8.42,6.38c2.41,4.33,2.86,8.59,1.36,12.67-3.23,8.76-14.62,13.08-15.1,13.26A3.15,3.15,0,0,1,577.18,485.38Z"/><path class="cls-6" d="M774.94,524.61s17.87,8.59,28.53,21,9.62,46.39,35,48.46,92.44-3.1,91.76,1.37-69.42,8.93-90.73,7.9c-36.77-1.77-35.18-32.44-42.61-45-4.47-7.55-29.56-9.62-29.56-9.62Z"/><path class="cls-8" d="M502.1,442.33s-7.77-8.68-2.73-13.26c8.58-7.79,14.43,3.51,14.43,3.51Z"/><path class="cls-8" d="M567.22,467.68s9.36-9.75,13.65-1.56-8.58,12.48-8.58,12.48Z"/><path class="cls-9" d="M491.07,465a12.94,12.94,0,1,1-12.94-12.93A12.94,12.94,0,0,1,491.07,465Z"/><path class="cls-5" d="M487.65,462.49a3,3,0,1,1-3-3A3,3,0,0,1,487.65,462.49Z"/><path class="cls-5" d="M479.49,457.25a3,3,0,1,1-3-3A3,3,0,0,1,479.49,457.25Z"/><path class="cls-5" d="M482.41,471a3,3,0,1,1-3-3A3,3,0,0,1,482.41,471Z"/><path class="cls-5" d="M474,466.7a3,3,0,1,1-3-3A3,3,0,0,1,474,466.7Z"/><path class="cls-6" d="M479.07,472.11a1.79,1.79,0,0,1-1.65-1.5l-2.65-11.08A2.15,2.15,0,0,1,476,457a1.7,1.7,0,0,1,2.13,1.42l2.65,11.08a2.14,2.14,0,0,1-1.18,2.55A1.61,1.61,0,0,1,479.07,472.11Z"/><path class="cls-6" d="M470.09,466.43a1.69,1.69,0,0,1,1.31-1.66l10.74-3.66a2.22,2.22,0,0,1,2.66.77c.4.79-.13,1.71-1.19,2.07l-10.74,3.66a2.2,2.2,0,0,1-2.65-.77A1.23,1.23,0,0,1,470.09,466.43Z"/><path class="cls-9" d="M543,504.52A12.94,12.94,0,1,1,530,491.59,12.94,12.94,0,0,1,543,504.52Z"/><path class="cls-5" d="M539.54,502a3,3,0,1,1-3-3A3,3,0,0,1,539.54,502Z"/><path class="cls-5" d="M531.38,496.77a3,3,0,1,1-3-3A3,3,0,0,1,531.38,496.77Z"/><path class="cls-5" d="M534.3,510.52a3,3,0,1,1-3-3A3,3,0,0,1,534.3,510.52Z"/><path class="cls-5" d="M525.88,506.22a3,3,0,1,1-3-3A3,3,0,0,1,525.88,506.22Z"/><path class="cls-6" d="M531,511.63a1.79,1.79,0,0,1-1.65-1.49l-2.65-11.09a2.14,2.14,0,0,1,1.18-2.55,1.7,1.7,0,0,1,2.13,1.42L532.62,509a2.14,2.14,0,0,1-1.18,2.55A1.34,1.34,0,0,1,531,511.63Z"/><path class="cls-6" d="M522,506a1.69,1.69,0,0,1,1.32-1.66L534,500.63a2.22,2.22,0,0,1,2.66.77c.4.79-.13,1.71-1.19,2.07l-10.73,3.66a2.22,2.22,0,0,1-2.66-.77A1.23,1.23,0,0,1,522,506Z"/><path class="cls-5" d="M415.83,537.32s10.65-2.06,16.49,12.37S432,568.6,432,568.6s-24.4,2.4-27.84-5.5S415.83,537.32,415.83,537.32Z"/><path class="cls-6" d="M540.4,570s12.37,24.74,26.29,22.17c9.84-1.83-5.15-21.65-5.15-21.65Z"/><path class="cls-6" d="M702.26,572.55s12.37,24.74,26.29,22.16c9.84-1.82-5.15-21.65-5.15-21.65Z"/><path class="cls-8" d="M277,365.32s-11.34-37.63-7.73-38.66,32.47,17.53,32.47,17.53Z"/><path class="cls-8" d="M265.13,526.15s-18.55,11.86-17,15,43.3,5.67,43.3,5.67Z"/><path class="cls-4" d="M305.44,525.84A3.1,3.1,0,0,1,300,528a20.46,20.46,0,0,1-4-7.4,21.36,21.36,0,0,1-.8-8.28,3.09,3.09,0,1,1,6.12.92h0A16,16,0,0,0,302,519a14.58,14.58,0,0,0,2.7,4.93A3.13,3.13,0,0,1,305.44,525.84Z"/><path class="cls-4" d="M302.26,370.3a3.1,3.1,0,0,0-5.65-1.48,20.76,20.76,0,0,0-3.06,7.83,21.41,21.41,0,0,0,.23,8.32,3.09,3.09,0,1,0,6-1.67h0a16.57,16.57,0,0,1-.06-5.78,14.64,14.64,0,0,1,2.07-5.23A3.13,3.13,0,0,0,302.26,370.3Z"/><path class="cls-4" d="M819.28,426c-8.48,1.91-11,2.06-5.5,19.93s5.41,30.3,20.27,26.12c11-3.09,1-6.88-5.15-21.65S829.93,423.57,819.28,426Z"/><path class="cls-4" d="M853.3,412.92c-8,8.34-4.47,4.12,4.12,18.56s14.44,23.71,21,19.93c18-10.44,3.78-12.72-8.6-24.06S861.2,404.67,853.3,412.92Z"/><path class="cls-4" d="M859.11,392.41c.82,8.38,1.57,7.25,22.71,6.76,18.29-.42,26.86,7.92,26.32-6.31S912,378.35,888,383C865.58,387.38,858.11,382.24,859.11,392.41Z"/><path class="cls-4" d="M847.46,359.65c3.34,10.8,7.9,2.06,25.08-5.15s29.9-6.88,17.53-20.62-12-13.4-25.43-.69S843,345.22,847.46,359.65Z"/><path class="cls-4" d="M252.25,462.7c-3.12-2.46-11.07-6.43-12-2-1.53,7.43,1.67,17.54,1.67,17.54,5,7.12,51.65,22.05,46.4,3C282,476.62,273.26,479.24,252.25,462.7Z"/><path class="cls-4" d="M285.26,445c-13.07-5.51-38.66-19.3-40.18-16.23-1.75,3.54-3.5,18.18-2.84,20.58a111.3,111.3,0,0,0,33.95,13.21c5.66,1.28,14.65,3.11,18.32-1.84C300.78,452.23,291.25,447.49,285.26,445Z"/><path class="cls-4" d="M237.56,447.75l-.08-.08c-.23-.13-.47-.25-.7-.39Z"/><path class="cls-4" d="M289.21,428.57c-.1-13.77-19.1-15.2-27.91-21.21-3.06-2.08-5.85-7.69-9-7.42-2.62.21-3.94,16.16-3.94,16.16C270,430.5,292.49,438.83,289.21,428.57Z"/></svg>