<?xml version="1.0" encoding="utf-8"?>
<!-- Generator: Adobe Illustrator 24.0.1, SVG Export Plug-In . SVG Version: 6.00 Build 0)  -->
<svg version="1.1" id="Capa_1" xmlns="http://www.w3.org/2000/svg" xmlns:xlink="http://www.w3.org/1999/xlink" x="0px" y="0px"
	 viewBox="0 0 157 124" style="enable-background:new 0 0 157 124;" xml:space="preserve">
<style type="text/css">
	.st0{fill:#B9BF9C;}
	.st1{fill:#92967B;}
	.st2{fill:#0D131A;}
	.st3{fill:#865B15;}
	.st4{fill:#6A4504;}
	.st5{fill:#EB6D80;}
	.st6{fill:#CB5E71;}
	.st7{fill:#F6C7CE;}
	.st8{fill:#FFFFFF;}
	.st9{fill:none;}
</style>
<path class="st0" d="M41.7,58.6c0,0,40.3-13.6,76.7,5.6l0.9,0.6L119.2,77l-2.3,1.1l-7.4,1.9l-3.8,2.1l-3-4l-1.5-0.5l-11.1,0.8
	l-1.7,1.8l-1,1.7l-4,1.4l-1.2,3.2l-3.5-4L74.5,82l-4.1,0.6L66.6,82l-4.4-4l-1.7-2.3L53.4,75l-3.5-0.3l-2.8,1.5L44,77.7l-3.7-2
	l-0.5-0.9l1.4-1.7l-0.8-2.9L41.7,58.6z"/>
</svg>
