<?xml version="1.0" encoding="utf-8"?>
<!-- Generator: Adobe Illustrator 24.0.1, SVG Export Plug-In . SVG Version: 6.00 Build 0)  -->
<svg version="1.1" id="Capa_1" xmlns="http://www.w3.org/2000/svg" xmlns:xlink="http://www.w3.org/1999/xlink" x="0px" y="0px"
	 viewBox="0 0 157 124" style="enable-background:new 0 0 157 124;" xml:space="preserve">
<style type="text/css">
	.st0{fill:#B9BF9C;}
	.st1{fill:#92967B;}
	.st2{fill:#0D131A;}
	.st3{fill:#865B15;}
	.st4{fill:#6A4504;}
	.st5{fill:#EB6D80;}
	.st6{fill:#CB5E71;}
	.st7{fill:#F6C7CE;}
	.st8{fill:#FFFFFF;}
</style>
<path class="st2" d="M108.6,12c8,8,12,17.4,12,28.2l0.1,43.4c0,2.1-3.5,3.9-10.5,5.4c-7.7,1.6-18.1,2.3-31.1,2.3
	c-12.3,0-22.4-1.4-30.2-4.2c-6.4-2.3-9.7-4.7-9.7-7l1.2-40.9c0-10.8,4-20,11.9-27.7C60.2,3.8,69.6,0,80.4,0C91.3,0,100.7,4,108.6,12
	"/>
<path class="st3" d="M117.5,40.2l0.5,38.9c0,2.3-3.4,4.6-10.2,6.7c-7.4,2.4-16.1,3.5-25.9,3.5c-11.5,0-20.8-0.9-27.9-2.7
	c-8.1-2-12.2-5-12.2-9l1.5-37.4c0-10.3,3.6-19,10.9-26.3S70.2,3,80.4,3c10.2,0,19,3.6,26.2,10.9S117.5,29.9,117.5,40.2"/>
<path class="st4" d="M107.2,14.6c3.3,3.4,5.8,7.2,7.5,11.6c1.8,4.5,2.7,9.1,2.7,14.1l0.5,38.9c0,2.3-3.4,4.6-10.2,6.7
	c-7.4,2.4-16.1,3.5-25.9,3.5L71,89c1.7-1.5,3.4-2.8,5.2-3.9c12.9-8.5,21.8-19.1,26.7-32C106.9,42.4,108.4,29.6,107.2,14.6"/>
<path class="st2" d="M90.2,33.7c2.7,1.4,4,3,4,5c0,2-1.3,3.6-4,5c-2.7,1.4-6.1,2-10.3,2c-4.1,0-7.6-0.7-10.3-2c-2.7-1.4-4-3-4-5
	c0-2,1.3-3.6,4-5c2.8-1.4,6.2-2.1,10.3-2.1C84,31.6,87.5,32.3,90.2,33.7"/>
<path class="st2" d="M92.4,29.2c-1.6,0-2.4-2.5-2.4-7.4c0-5,0.8-7.4,2.4-7.4c1.7,0,2.5,2.5,2.5,7.4c0,2.4-0.2,4.2-0.7,5.5
	C93.7,28.5,93.1,29.2,92.4,29.2"/>
<path class="st2" d="M67.5,29.2c-0.8,0-1.4-0.6-1.8-1.9C65.2,26,65,24.2,65,21.8c0-2.5,0.2-4.4,0.7-5.7c0.4-1.1,1-1.7,1.7-1.7
	c1.6,0,2.4,2.5,2.4,7.4c0,2.3-0.2,4.1-0.7,5.5C68.7,28.5,68.2,29.2,67.5,29.2"/>
<path class="st5" d="M88.9,35c2.5,1,3.7,2.3,3.7,3.7c0,1.5-1.2,2.7-3.7,3.7c-2.5,1-5.4,1.5-9,1.5c-3.5,0-6.5-0.5-9-1.5
	s-3.7-2.3-3.7-3.7c0-1.5,1.2-2.7,3.7-3.7c2.5-1,5.4-1.5,9-1.5C83.4,33.4,86.4,34,88.9,35"/>
<path class="st6" d="M92.4,37.7l0.2,1c0,1.5-1.2,2.7-3.7,3.7c-2.5,1-5.4,1.5-9,1.5c-3.3,0-6.1-0.4-8.5-1.3c-2.4-0.9-3.8-2-4.1-3.3
	c3.4,1.8,7.1,2.7,11.3,2.7C83.9,42.1,88.5,40.6,92.4,37.7"/>
<path class="st7" d="M75.3,38.7l-4,0.1c-1.2-0.2-1.8-0.6-1.9-1.2c-0.1-0.6,0.3-1.1,1.3-1.7c1-0.6,2.3-1.1,3.8-1.3l4-0.1
	c1.2,0.2,1.8,0.6,1.9,1.2c0.1,0.6-0.3,1.2-1.3,1.8C78.1,38,76.8,38.5,75.3,38.7"/>
<path class="st8" d="M68.5,17.7l-0.3,1.4c-0.2,0.4-0.5,0.6-0.8,0.6c-0.3,0-0.6-0.2-0.8-0.6c-0.2-0.4-0.3-0.9-0.3-1.4
	c0-0.6,0.1-1,0.3-1.4c0.2-0.4,0.5-0.6,0.8-0.6c0.3,0,0.6,0.2,0.8,0.6L68.5,17.7"/>
<path class="st8" d="M93.5,17.6l-0.3,1.4l-0.8,0.6c-0.3,0-0.6-0.2-0.8-0.6c-0.2-0.4-0.3-0.9-0.3-1.4c0-0.6,0.1-1,0.3-1.4
	c0.2-0.4,0.5-0.6,0.8-0.6l0.8,0.6L93.5,17.6"/>
</svg>
