<?xml version="1.0" encoding="utf-8"?>
<!-- Generator: Adobe Illustrator 24.0.1, SVG Export Plug-In . SVG Version: 6.00 Build 0)  -->
<svg version="1.1" id="Capa_1" xmlns="http://www.w3.org/2000/svg" xmlns:xlink="http://www.w3.org/1999/xlink" x="0px" y="0px"
	 viewBox="0 0 157 67.7" style="enable-background:new 0 0 157 67.7;" xml:space="preserve">
<style type="text/css">
	.st0{fill:#DDA15E;}
	.st1{fill:#B9BF9C;}
	.st2{fill:#92967B;}
	.st3{fill:#0D131A;}
	.st4{fill:#865B15;}
	.st5{fill:#6A4504;}
	.st6{fill:#EB6D80;}
	.st7{fill:#CB5E71;}
	.st8{fill:#F6C7CE;}
	.st9{fill:#FFFFFF;}
</style>
<polygon class="st0" points="0.3,25.5 0.3,67.7 157,67.7 156.5,29.5 85.8,40.9 25.8,37 "/>
<g>
	<path class="st1" d="M119.2,20.7l0.3-13.1l0.7,0.1l2-0.2l2-0.5l2,0l0.2,0.1l0.7,0c0.6,0,1.6,0.3,3,0.8c1.3,0.5,2.1,0.9,2.5,1.3
		c0.8,0.3,1.6,1.1,2.5,2.2c1,1.2,1.8,2,2.4,2.4c0.8,0.5,1.7,0.8,2.6,1c0.8,0.2,1.6,0.6,2.4,1.1c0.6,0.4,0.8,0.9,0.8,1.6l1.2,2.5
		l0.1,1.4l7.3,5.1c2.6,1.9,3.9,3.6,3.9,5c0,3.2-0.8,5.7-2.3,7.5c-1.5,1.8-4.2,3.6-8.2,5.4c-0.6,0.3-1.9,1.3-3.8,3
		c-1.9,1.7-3.3,2.6-4.2,2.9c-1.2,0.4-3.2,0.4-6.1,0l-5-0.3l-6.8,6.5c-4.2,4.1-7.4,6.2-9.8,6.5c-0.5,0.1-2.4-0.8-5.7-2.6
		c-3.3-1.8-5.2-2.7-5.7-2.7c-1.7,0.1-3.5,0.1-5.5,0l-5.9,0c-0.9,0-2.6,1.4-5.1,4.2c-2.5,2.8-4.2,4.1-5.1,4.1
		c-10.1,0-17.1-1-20.9-2.9c-0.9-0.5-1.8-2.1-2.5-4.8c-0.8-2.7-1.5-4.2-2.2-4.6l-2.9-1.7c-0.6-0.3-1.6-0.6-3-1
		c-1.6-0.4-4.4,0.5-8.6,2.7s-6.6,3.3-7.3,3c-4.2-1.3-7.2-2.5-9.1-3.4c-2.3-1.1-4.6-2.7-6.7-4.6c-0.9-0.8-1.6-2.3-2-4.5
		c-0.5-2.4-1-4-1.4-4.6l-2.9-4.4l-2.9-4l-2.3-3C1.2,27.1,1.1,26,1.6,25C2.2,23.6,4,21.8,7,19.7l7.1-4.8l0.6-0.5
		c0-1.3,0.1-2.2,0.3-2.5c0.3-0.5,0.7-0.8,1.2-1.1c0.3-0.1,0.5-0.2,0.7-0.2l0.8-0.8l1.5-1.1c3.4-1,5.5-1.7,6.4-2.1
		C26.9,5.8,28,5,28.9,3.8l1.2-1.1c0.6-0.4,1.1-0.7,1.5-0.8l3.4-0.1l1.1,0l1.4-0.2L41.6,2l0.1,0.3c-1.1,15-3.9,14.5,1.3,24.8
		c5.9,0,45.5,0.8,53.4,3.3"/>
	<path class="st2" d="M97.3,23.5l-0.9-2l6,0.1c0.5,0.1,1.6,1.5,3.3,4.2l4.2-2.3l4.2-1l4.4-0.9c0.4,0,0.7-0.3,0.7-0.8L119.3,8
		l3.1-0.4l4-0.4c0.8,0,2.5,0.5,5.2,1.5c0.6,0.3,1.7,1.1,3.1,2.6l2.5,2.5c0.3,0.2,1.2,0.6,2.7,1l2.7,0.8c0.5,0.2,1.1,2,1.9,5.4l1,0.7
		l1.6,0.9l4.6,3.5c2.6,2.2,4,3.4,4,3.7c0.1,0.5,0.1,1.6-0.1,3.2c-0.2,2-0.5,3.5-0.9,4.6c-0.4,1-2.3,2.5-5.5,4.5l-4.7,2.7l-1.6,2.4
		c-0.5,0.8-2.2,1.8-5.1,3.1c-0.8,0.3-4.8,0.2-11.9-0.3l-3.7,4.3c-1.4,1.7-5.5,4.5-12.4,8.6c-1.3-12.3-1.9-19.5-1.8-21.5
		c0.1-1.1-1.3-3.5-4.2-7.2c-3.1-4-4.8-6.3-5-6.9L97.3,23.5"/>
	<path class="st1" d="M82.2,29.5c1.1-1.3,1.9-2.2,2.3-2.5c0.5-0.3,1.7-0.8,3.5-1.4l0.4-1.5c0.3-1.1,0.6-1.7,0.9-1.8l6.4-0.5
		c3.7-0.5,5.9-0.5,6.6-0.1c0.6,0.3,1.6,1.5,2.9,3.5l2.2-0.3l2-1c1.1-0.6,1.9-0.9,2.3-0.9l1.7-0.4l2.1-0.4l2.3-0.1
		c0.8-0.1,1.3-0.3,1.5-0.6l2-1.5c1-0.6,1.7-1,1.9-1l2.4-0.1l3,0.3c1.5,0.5,2.5,1,3.2,1.7l1.7,1.9c0.9,1,1.7,1.7,2.4,2.1l2.9,1.8
		l2.2,1.7l2.2,2.7c1,1.5,1.5,2.9,1.5,4.1l-1.3,1.6c-1,1.4-1.8,2.8-2.4,4.4c-0.6,1.5-2.1,2.6-4.4,3.2c-2.6,0.5-4.4,0.8-5.2,1.1
		l-5.5-0.4l-4.6-0.9c-0.5,0.1-1.3,2.1-2.3,5.9l-1.6,6.6c-0.1,0.5-1.6,0.8-4.6,0.9l-5.3,0.4c-0.3,0.1-2.4-0.7-6.4-2.5
		c-4.3-1.9-7.4-2.8-9.3-2.5l-8.4,0.9c-3.5,0.5-5.4,1.1-5.8,1.8c-0.5,0.8-1.3,1.4-2.6,1.9c-1.3,0.5-2.5,0.7-3.6,0.5l-3.8-1.3
		l-6.4-0.4c-2.1,0.4-5.1-1.7-9.2-6.1c-4.1-4.5-6.7-6.8-7.7-6.8c-1.3,0-4,1.1-7.9,3.4c-3.5,2-5.4,2.9-5.5,2.5L25.8,49l-6.5,0.3
		c-1-0.2-2-1.4-3-3.7c-0.9-2.1-1.3-3.7-1.3-5c0-0.9,0.7-2.2,2.2-3.9l2.2-2.3c0.6-0.7,1.4-1.3,2.4-1.9l1.9-1.2
		c0.5-0.6,2.6-2.4,6.2-5.2c4.8-3.9,7.7-5.9,8.6-6.1l2.5,0.2c0.9,0.2,1.5,0.5,1.9,0.8l1.2,0.5c0.6,0,1.1-0.1,1.5-0.4l3.3-2.5
		c0.2-0.1,1.2-0.1,3,0l3.9,0.2l2.5,0.2c0.9,0.1,1.5,0.3,1.8,0.6l2.4,2.3l2.5,2.5c0.6,0.4,1.3,0.9,2.3,1.3l2.1,0.6l2.9-0.5l3-0.4
		C76.3,25.7,78.5,27,82.2,29.5"/>
	<path class="st2" d="M96.4,21.6l1.8-0.1l4.1,0.1c0.6,0.3,1.6,1.5,2.9,3.5l0.4,0.7l4.3-2.4l6.9-1.6c1.5-0.1,2.4-0.3,2.6-0.7l2-1.5
		c1-0.6,1.7-1,1.9-1l2.4-0.1l3,0.3c1.5,0.5,2.5,1,3.2,1.7l1.7,1.9c0.9,1,1.7,1.7,2.4,2.1c0.5,0.4,1.7,0.9,3.6,1.6
		c1.7,0.6,2.7,1.1,3,1.4c2.7,3.1,4,5.6,4,7.4l-1.7,2c-1.3,1.7-2.2,3.3-2.8,4.8c-0.6,1.6-2.1,2.8-4.4,3.7c-2.6,0.8-4.4,1.3-5.2,1.6
		c-1,0.3-2.9,0.1-5.8-0.5l-4.9-1c-0.5,0.1-1.3,2-2.4,5.7l-1.7,6.4c-0.1,0.5-1.2,0.7-3.3,0.7c-2.1,0-3.9-0.3-5.2-0.8
		c-0.9-9.3-1.3-14.6-1.2-16c0.1-1.1-1.3-3.5-4.2-7.2c-3.1-4-4.8-6.3-5-6.9C98.2,25.6,97.4,23.7,96.4,21.6"/>
	<path class="st2" d="M75.7,42.1c2.9-1.1,4.6-1.5,5.1-1.1c0.5,0.3,1.6,3.1,3.1,8.2c1.5,5.2,2.1,8.1,1.8,8.8l-3.1,3.7l-3.1,2.7
		c-1.6,1.2-2.6,1.8-3,1.8c-10.4-0.5-15.5-1.2-15.5-2.3c0-1.1,1.4-4.4,4.3-9.9c2.5-4.6,4.2-7.6,5.2-9.1
		C71.1,44.2,72.8,43.2,75.7,42.1"/>
	<path class="st2" d="M15.6,41c2-4.7,3.2-7.1,3.5-7.3c3-1.4,4.8-2.4,5.2-2.9l2.4-2.4l2.4-2.1L35,22l2-1.5c1-0.7,1.7-1,2.1-1l4.5,2.4
		c0.3,0.2,0.7,1.7,1.2,4.6l0.8,6c0.1,1.5-0.2,7.6-0.8,18.4c-9.7,4.1-14.9,6.1-15.5,6c-0.4,0-3.2-1.4-8.4-4.1c-5-2.6-7.7-4.1-8.1-4.4
		C12.7,48.2,13.6,45.7,15.6,41"/>
	<path class="st3" d="M99.5,22L95,22.1l-3.1,0.2c-1.3,0.2-2.1,0.4-2.3,0.6c-0.3,0.3-0.5,0.9-0.8,1.8l-0.4,1.4
		c-1.8,0.4-3,0.8-3.6,1.3c-0.4,0.3-0.8,0.9-1.2,1.8l-0.9,1.9c-0.2,0.5-0.5,1.2-0.7,2.1c-0.2,0.9-0.3,1.5-0.3,1.8l0,1.1
		c0,0.4-0.2,0.6-0.4,0.6c-0.3,0.1-0.6-0.2-0.9-0.7c-0.3-0.5-0.4-1-0.3-1.5l1.2-5l-2-1.7c-1.4-1-2.3-1.6-2.9-1.7l-3.3,0.2l-3.9,0.5
		c-1.1,0-2.2-0.3-3.5-1c-1.2-0.6-2-1.2-2.3-1.7c-1.7-2.6-2.9-4.2-3.6-4.6l-3.4-0.3l-3.3,0.1c-2.6-0.2-4.2,0-4.8,0.6l-1.9,1.3
		c-0.9,0.5-1.5,0.7-2,0.7c-0.4,0-1.1-0.3-2.1-0.9l-2-0.9c-0.4-0.1-1.2,0.2-2.4,0.7c-1.2,0.6-2,1.1-2.5,1.6l-3.3,2.8l-3.4,2.9
		l-2.2,1.9l-2,1.7c-0.3,0.3-1.1,0.8-2.3,1.3l-2.3,0.9c-0.3,0.2-0.5,0-0.7-0.3c-0.2-0.4-0.1-0.7,0.2-0.9l2.1-0.9
		c1.6-0.9,2.9-1.9,3.8-3c1.1-1.4,3.6-3.4,7.4-6.2c3.8-2.8,6.1-4.2,7-4.3c1.1-0.1,1.9,0.1,2.4,0.7l0.9,0.5l1.7,0.4
		c1,0,1.9-0.4,2.8-1.3c1.2-1.2,2.8-1.6,4.8-1.3l4.9,0.4l4,0.5c0.5,0.2,1.1,0.8,1.7,1.8l1.5,2.2c2,2,3.8,3,5.4,3l3.3-0.6l2.6-0.6
		l2.3,0.5c0.9,0.3,1.6,0.6,2,0.9l2.6,2.4c0.5-0.9,1.4-1.8,2.9-2.7c0.7-0.4,1.4-0.8,2.1-1c0.4-1.1,0.7-1.9,0.9-2.4
		c0.2-0.4,0.7-0.7,1.7-1.1c1-0.4,1.9-0.5,2.7-0.5h5.4l2.9-0.1c1.3,0,2.1,0.1,2.3,0.5l2.2,3.7l3.7-1.9c0.7-0.4,3.9-1.1,9.5-2.2l2.6-2
		l2.4-1.3l1.9,0.3l2.9,0.6l2.4,0.7c1,0.4,1.7,0.8,2,1.3c1.6,2.4,3.1,3.9,4.3,4.5c1,0.5,2.2,1.5,3.6,3c0.3,0.4,0.2,0.6-0.3,0.5
		c-0.4-0.1-0.8-0.3-1.3-0.6c-0.3-0.2-1.3-0.7-3.1-1.6l-3.5-1.9c-0.5-0.4-1.1-1.2-1.7-2.4l-1.1-2c-0.3-0.2-1.4-0.4-3.4-0.5
		c-1.9-0.1-3.1-0.1-3.4,0l-1.7,1.4l-2.1,1.4l-4.7,0.9l-4.5,0.9l-3.4,2.1l4.1,2c2.8,1.4,4.3,2.3,4.6,2.6s0.5,1.2,0.5,2.5l-0.1,2.7
		c0,0.5-0.2,0.8-0.5,0.8c-0.3,0-0.5-0.2-0.6-0.6l-0.2-2l-0.2-1.9c-0.1-0.3-0.9-1-2.3-1.9l-2.6-1.6l-4.2-2.4c-0.3-0.2-0.7-0.9-1.3-2
		l-0.9-2L99.5,22"/>
	<path class="st3" d="M22.5,14.1l1.7-1.1l2.4-1.5l2.6-1.4l3-0.2c1.3,0.2,2.9,0.7,4.6,1.5c1.8,0.9,3,1.7,3.6,2.5
		c0.5,0.6,0.8,1.3,0.9,2.1c0.1,0.5-0.1,1.2-0.6,2c-0.5,0.8-0.8,1-0.8,0.5l-0.2-3c0-0.4-0.8-1.1-2.2-1.9c-1.2-0.7-2.2-1.2-2.8-1.3
		l-2.7-0.6l-2.8,0.1l-6.5,3.7l-3.8,1.7l-3.2,1.5c-0.4,0.3-1,1.4-2,3.3l-0.7,1.7c-0.3,0.6-0.6,1.1-1,1.4c-0.5,0.4-0.9,0.6-1.2,0.5
		c-0.3-0.1-0.4-0.4-0.2-1c0.3-0.8,0.9-2.1,1.9-3.8c0.9-1.6,1.5-2.6,1.8-2.9c0.2-0.2,1.6-0.9,4-1.9L22.5,14.1"/>
	<path class="st3" d="M120,8.6c-0.8,0-1.3-0.2-1.6-0.7c-0.3-0.5-0.1-0.8,0.5-0.9l3.5-0.5l4-0.2c0.9,0.1,2.3,0.4,4.1,1
		c2,0.6,3,1.1,3.2,1.5l1.6,2.4c0.9,1.2,1.6,1.9,1.9,2.1l3.1,1l2.8,1l0.9,2.2l0.8,2.8c2.9,1.5,5.4,3.2,7.7,5c2.1,1.8,3.4,3.2,3.8,4.2
		c0.1,0.3,0.1,1.8,0,4.5c-0.1,2.8-0.4,4.4-0.7,4.8c-0.6,0.7-2,1.8-4.3,3.3c-2.7,1.8-5,3-6.7,3.6c-1.7,3.1-3.7,5.1-6,5.9
		c-0.8,0.3-3,0.3-6.7,0l-5.8-0.5c-1.2,2-3.8,4.7-7.6,8.1c-4.3,3.8-7.2,5.6-8.9,5.5c-1.1,0-3.1-1-6.2-2.9L99.2,59
		c-0.4-0.1-2.3-0.1-5.8,0l-6.7,0.1l-3.9,4.2c-2.7,2.7-4.7,4.2-5.9,4.3l-11.9-1c-6-0.9-9.4-1.7-10.2-2.2c-0.4-0.2-1.1-1.9-2.1-4.9
		L51.1,55c-0.4-0.3-1.4-0.9-3.2-1.8c-1.8-0.9-2.9-1.4-3.2-1.5l-7.5,3.4l-7.7,3.4c-1.1,0.1-6.8-3-17.1-9.4c-1.4-3.1-2.2-5.7-2.3-7.9
		c0-0.4-0.6-1.3-1.7-2.5l-3.1-3.4c-3.3-4.1-4.9-7.3-4.9-9.9c0-1.2,1.5-3.2,4.6-5.8c3.1-2.7,6-4.6,8.7-5.7c0.4-0.2,0.8-0.8,1.2-1.8
		c0-0.4,0-0.6,0.1-0.8l1.3-1.6c0.7-0.7,1.2-1.1,1.7-1.4c0.4-0.2,1.6-0.6,3.7-1.1l3.6-1L28,3.8l2.6-2.4l1.9-0.3l1.8,0l1.7-0.5L37.7,0
		c0.5,0,1.8,0.4,4,1.2C42,1.3,42.2,1.6,42,2.1c-0.2,0.5-0.4,0.7-0.7,0.6L37.7,2l-1.5-0.1c-0.5,0.1-0.9,0.2-1.2,0.3l-1.8,0.2
		l-2.1,0.1c-0.2,0.1-1,0.8-2.3,2.2L26.1,7l-3.7,1.2l-3.5,1.3l-1,1.1l-1.2,1.8l-0.1,0.2c-0.6,1.4-1.3,2.3-2.2,2.7
		C11.7,16.7,9,18.5,6.1,21c-2.6,2.3-4,3.8-4,4.5c0,0.9,0.6,2.2,1.7,4l3.5,4.6l3.2,4.2c0.8,1.2,1.2,2.1,1.2,2.9
		c0.1,1.9,0.7,4.2,2,6.9c9.3,5.1,14.5,7.7,15.6,7.8l7.3-2.9c4.8-2.1,7.5-3.1,8-3c0.6,0.1,2,0.6,4.1,1.7c2.1,1.1,3.3,1.8,3.6,2.2
		l1,2.4c1.4,3.7,2.2,5.7,2.5,6c0.8,0.4,3.9,1,9.4,1.9l11.1,0.9c1.6-0.2,3.9-2.2,6.9-6c0.9-1,1.4-1.7,1.7-1.9c0.4-0.3,0.7-0.5,1-0.5
		l6.2,0.1l7.1,0.3c0.2,0,1,0.5,2.4,1.3c3.9,2.4,6.5,3.6,7.9,3.6c1.3,0,4.1-1.7,8.3-5.3c4.1-3.5,6.4-5.8,6.8-6.9
		c0.1-0.3,0.3-0.5,0.7-0.6l4.1,0.1c4.6,0.3,7.4,0.3,8.4-0.1c1.3-0.5,2.5-1.3,3.6-2.5l1.6-2.3c0.1-0.2,0.3-0.4,0.5-0.4
		c1.5-0.4,3.5-1.6,6-3.5l4-3.4c0.3-0.4,0.6-1.5,0.9-3.3c0.3-1.9,0.3-3.2,0-3.8c-0.3-0.8-1.4-2-3.1-3.5c-2.2-1.9-4.7-3.6-7.5-5
		l-0.5-0.6l-0.1-0.5l-0.7-2.3l0-1c0-0.3-0.2-0.5-0.7-0.7l-2.7-0.6c-1.4-0.4-2.3-0.9-2.7-1.5l-2.1-2.2l-2-1.5
		c-3.4-1.7-5.4-2.5-6.2-2.6l-3,0.3L120,8.6"/>
</g>
</svg>
